<?xml version="1.0" encoding="UTF-8"?>
<svg width="57px" height="48px" viewBox="0 0 57 48" version="1.1" xmlns="http://www.w3.org/2000/svg" xmlns:xlink="http://www.w3.org/1999/xlink">
    <!-- Generator: Sketch 57.1 (83088) - https://sketch.com -->
    <title>server-desat</title>
    <desc>Created with Sketch.</desc>
    <defs>
        <polygon id="path-1" points="0.217476923 0 56.2107692 0 56.2107692 32.8156444 0.217476923 32.8156444"></polygon>
    </defs>
    <g id="1.1-Visual-Designs---FINAL" stroke="none" stroke-width="1" fill="none" fill-rule="evenodd">
        <g id="server-desat">
            <polygon id="Fill-1" fill="#EAEBEA" points="0.01026 22.5384 28.2094754 39.0121778 56.1201831 22.5704 28.0235677 6.12684444"></polygon>
            <polygon id="Fill-2" fill="#E4E4E3" points="28.2094754 39.012 28.1998292 47.9995556 56.1114138 31.5586667 56.1201831 22.5702222"></polygon>
            <polygon id="Fill-3" fill="#B8B8B8" points="0 31.528 28.2000923 48 28.2097385 39.0124444 0.00876923077 22.5404444"></polygon>
            <polygon id="Fill-4" fill="#717071" points="30.6151385 39.6472889 30.6151385 45.0801778 31.9884 44.2784 31.9884 38.8490667"></polygon>
            <polygon id="Fill-5" fill="#717071" points="33.6791954 37.8512889 32.45238 38.5828444 32.45238 44.0130667 33.6677954 43.2850667"></polygon>
            <g id="Group-17">
                <path d="M51.74688,29.0309333 C52.1090492,28.8122667 52.40808,28.9793778 52.4142185,29.4051556 C52.4212338,29.8291556 52.1318492,30.3500444 51.7705569,30.5687111 C51.4083877,30.7873778 51.1093569,30.6193778 51.1032185,30.1944889 C51.09708,29.7696 51.3847108,29.2487111 51.74688,29.0309333" id="Fill-6" fill="#717071"></path>
                <path d="M54.2796092,27.5613333 C54.6417785,27.3435556 54.9408092,27.5106667 54.9469477,27.9364444 C54.9539631,28.3604444 54.6645785,28.8813333 54.3032862,29.0991111 C53.9411169,29.3177778 53.6420862,29.1497778 53.6359477,28.7257778 C53.6298092,28.3008889 53.91744,27.78 54.2796092,27.5613333" id="Fill-8" fill="#717071"></path>
                <g id="Group-12">
                    <mask id="mask-2" fill="white">
                        <use xlink:href="#path-1"></use>
                    </mask>
                    <g id="Clip-11"></g>
                    <polygon id="Fill-10" fill="#EAEBEA" mask="url(#mask-2)" points="56.2107692 16.4085333 28.3579385 32.8156444 0.217476923 16.3783111 28.1720308 -0.000355555556"></polygon>
                </g>
                <polygon id="Fill-13" fill="#DCDCDA" points="56.2107692 16.4085333 56.202 19.5560889 28.3491692 35.9632 28.3579385 32.8156444"></polygon>
                <polygon id="Fill-15" fill="#B8B9B9" points="28.3577631 32.8156444 28.3489938 35.9632 0.206778462 19.5258667 0.216424615 16.3783111"></polygon>
            </g>
        </g>
    </g>
</svg>