<svg id="ae0e7218-7fb3-4e6f-87e4-a9196349c1d6" data-name="Icon" xmlns="http://www.w3.org/2000/svg" viewBox="0 0 36 36">
  <defs>
    <style>
      .a4f6cded-9e1c-4600-b5eb-907c128dcb14 {
        fill: #e00;
      }
    </style>
  </defs>
  <path class="a4f6cded-9e1c-4600-b5eb-907c128dcb14" d="M11,26.62a.62.62,0,1,0-.62-.62A.61.61,0,0,0,11,26.62Z"/>
  <path class="a4f6cded-9e1c-4600-b5eb-907c128dcb14" d="M25,26.62a.62.62,0,1,0-.62-.62A.61.61,0,0,0,25,26.62Z"/>
  <path class="a4f6cded-9e1c-4600-b5eb-907c128dcb14" d="M18,26.62a.62.62,0,1,0-.62-.62A.61.61,0,0,0,18,26.62Z"/>
  <g>
    <path class="a4f6cded-9e1c-4600-b5eb-907c128dcb14" d="M31,4.38H5A.61.61,0,0,0,4.38,5V31a.61.61,0,0,0,.62.62H31a.61.61,0,0,0,.62-.62V5A.61.61,0,0,0,31,4.38Zm-.62,26H5.62V5.62H30.38Z"/>
    <path class="a4f6cded-9e1c-4600-b5eb-907c128dcb14" d="M9,21.62h4a.62.62,0,0,0,0-1.24H9a.62.62,0,0,0,0,1.24Z"/>
    <path class="a4f6cded-9e1c-4600-b5eb-907c128dcb14" d="M16,21.62h4a.62.62,0,0,0,0-1.24H16a.62.62,0,1,0,0,1.24Z"/>
    <path class="a4f6cded-9e1c-4600-b5eb-907c128dcb14" d="M23,21.62h4a.62.62,0,0,0,0-1.24H23a.62.62,0,0,0,0,1.24Z"/>
    <path class="a4f6cded-9e1c-4600-b5eb-907c128dcb14" d="M9,18.62h4a.62.62,0,0,0,0-1.24H9a.62.62,0,0,0,0,1.24Z"/>
    <path class="a4f6cded-9e1c-4600-b5eb-907c128dcb14" d="M16,18.62h4a.62.62,0,0,0,0-1.24H16a.62.62,0,1,0,0,1.24Z"/>
    <path class="a4f6cded-9e1c-4600-b5eb-907c128dcb14" d="M23,18.62h4a.62.62,0,0,0,0-1.24H23a.62.62,0,0,0,0,1.24Z"/>
    <path class="a4f6cded-9e1c-4600-b5eb-907c128dcb14" d="M9,15.62h4a.62.62,0,0,0,0-1.24H9a.62.62,0,0,0,0,1.24Z"/>
    <path class="a4f6cded-9e1c-4600-b5eb-907c128dcb14" d="M16,15.62h4a.62.62,0,1,0,0-1.24H16a.62.62,0,0,0,0,1.24Z"/>
    <path class="a4f6cded-9e1c-4600-b5eb-907c128dcb14" d="M23,15.62h4a.62.62,0,1,0,0-1.24H23a.62.62,0,0,0,0,1.24Z"/>
    <path class="a4f6cded-9e1c-4600-b5eb-907c128dcb14" d="M9,12.62h4a.62.62,0,0,0,0-1.24H9a.62.62,0,0,0,0,1.24Z"/>
    <path class="a4f6cded-9e1c-4600-b5eb-907c128dcb14" d="M16,12.62h4a.62.62,0,0,0,0-1.24H16a.62.62,0,0,0,0,1.24Z"/>
    <path class="a4f6cded-9e1c-4600-b5eb-907c128dcb14" d="M23,12.62h4a.62.62,0,1,0,0-1.24H23a.62.62,0,0,0,0,1.24Z"/>
    <path class="a4f6cded-9e1c-4600-b5eb-907c128dcb14" d="M9,9.62h4a.62.62,0,0,0,0-1.24H9A.62.62,0,0,0,9,9.62Z"/>
    <path class="a4f6cded-9e1c-4600-b5eb-907c128dcb14" d="M16,9.62h4a.62.62,0,0,0,0-1.24H16a.62.62,0,0,0,0,1.24Z"/>
    <path class="a4f6cded-9e1c-4600-b5eb-907c128dcb14" d="M23,9.62h4a.62.62,0,1,0,0-1.24H23a.62.62,0,1,0,0,1.24Z"/>
  </g>
</svg>
